<?xml version="1.0" encoding="UTF-8"?>
<!DOCTYPE svg PUBLIC "-//W3C//DTD SVG 1.1//EN" "http://www.w3.org/Graphics/SVG/1.1/DTD/svg11.dtd">
<svg xmlns="http://www.w3.org/2000/svg" version="1.1" width="120px" height="120px" style="shape-rendering:geometricPrecision; text-rendering:geometricPrecision; image-rendering:optimizeQuality; fill-rule:evenodd; clip-rule:evenodd" xmlns:xlink="http://www.w3.org/1999/xlink">
<g><path style="opacity:0.898" fill="#e27b00" d="M 37.5,-0.5 C 45.5,-0.5 53.5,-0.5 61.5,-0.5C 53.837,3.32935 46.5037,7.66269 39.5,12.5C 31.0692,15.2138 23.4026,19.2138 16.5,24.5C 14.8333,24.5 13.1667,24.5 11.5,24.5C 18.2193,14.1135 26.886,5.78018 37.5,-0.5 Z"/></g>
<g><path style="opacity:0.99" fill="#0b0c0c" d="M 61.5,-0.5 C 71.8333,-0.5 82.1667,-0.5 92.5,-0.5C 94.4632,0.820176 96.4632,2.15351 98.5,3.5C 100.122,6.45487 102.122,9.12154 104.5,11.5C 104.5,12.1667 104.833,12.5 105.5,12.5C 106.167,15.1667 106.833,17.8333 107.5,20.5C 107.335,23.5184 107.502,26.5184 108,29.5C 114.762,36.8291 116.262,45.1624 112.5,54.5C 114.576,61.7238 114.909,69.0571 113.5,76.5C 111.668,75.7515 110.001,74.7515 108.5,73.5C 106.723,84.0012 102.89,93.6679 97,102.5C 95.0371,106.087 93.5371,106.087 92.5,102.5C 91.9984,101.479 91.3317,101.312 90.5,102C 87.9709,105.694 84.9709,108.86 81.5,111.5C 77.6357,114.932 73.3023,117.599 68.5,119.5C 66.5,119.5 64.5,119.5 62.5,119.5C 63.1098,118.609 63.4431,117.609 63.5,116.5C 63.6641,113.813 63.4974,111.146 63,108.5C 58.6199,110.774 54.4532,113.107 50.5,115.5C 48.2075,115.244 46.0408,115.577 44,116.5C 43.4867,115.473 42.9867,114.473 42.5,113.5C 43.1239,113.083 43.4573,112.416 43.5,111.5C 42.9392,108.465 42.2725,105.465 41.5,102.5C 39.187,101.727 36.8537,101.06 34.5,100.5C 33.914,100.709 33.414,101.043 33,101.5C 32.059,99.9386 30.8924,98.6053 29.5,97.5C 28.8076,98.0253 28.3076,98.6919 28,99.5C 26.9805,98.3128 25.8139,97.3128 24.5,96.5C 23.8076,97.0253 23.3076,97.6919 23,98.5C 22.1841,97.1772 21.0174,96.5106 19.5,96.5C 18.8485,97.0906 18.1818,97.7573 17.5,98.5C 14.1697,96.8309 11.5031,94.4975 9.5,91.5C 8.83333,91.5 8.5,91.1667 8.5,90.5C 8.55975,87.6592 9.22642,84.9925 10.5,82.5C 11.9744,79.3361 13.4744,76.0028 15,72.5C 15.2895,74.9519 15.9562,77.2852 17,79.5C 20.3804,75.8603 21.8804,71.527 21.5,66.5C 21.3958,61.3124 20.3958,56.3124 18.5,51.5C 17.2402,50.6184 16.0736,49.6184 15,48.5C 15.214,53.8969 13.8806,54.5635 11,50.5C 10.1389,47.2695 8.9722,44.2695 7.5,41.5C 6.01296,36.5584 5.17962,31.5584 5,26.5C 6.89699,24.9837 9.06365,24.317 11.5,24.5C 13.1667,24.5 14.8333,24.5 16.5,24.5C 20.1667,24.5 23.8333,24.5 27.5,24.5C 28.2613,25.3909 29.2613,26.0576 30.5,26.5C 31.7629,24.9713 32.7629,23.3046 33.5,21.5C 36.2546,18.9873 38.2546,15.9873 39.5,12.5C 46.5037,7.66269 53.837,3.32935 61.5,-0.5 Z M 65.5,10.5 C 67.9664,9.36594 70.633,9.19927 73.5,10C 70.9904,11.7445 68.3237,11.9112 65.5,10.5 Z"/></g>
<g><path style="opacity:1" fill="#ebebeb" d="M 67.5,0.5 C 78.3694,-1.03821 88.3694,1.12846 97.5,7C 102.992,12.4757 104.992,18.9757 103.5,26.5C 100.06,25.0794 98.5597,22.4128 99,18.5C 95.8919,12.7394 91.0585,9.23941 84.5,8C 74.1447,5.33287 64.1447,6.1662 54.5,10.5C 53.2054,9.90174 51.8721,9.40174 50.5,9C 55.7308,5.10231 61.3975,2.26898 67.5,0.5 Z"/></g>
<g><path style="opacity:0.562" fill="#d97700" d="M 98.5,3.5 C 105.662,6.82681 112.162,11.1601 118,16.5C 118.667,17.1667 118.667,17.8333 118,18.5C 114.273,15.5529 110.106,13.5529 105.5,12.5C 104.833,12.5 104.5,12.1667 104.5,11.5C 102.122,9.12154 100.122,6.45487 98.5,3.5 Z"/></g>
<g><path style="opacity:1" fill="#44a2af" d="M 76.5,11.5 C 87.0008,9.17963 93.0008,13.1796 94.5,23.5C 90.3062,23.1767 86.4729,24.1767 83,26.5C 82.6666,24.9532 83.1666,23.6199 84.5,22.5C 83.3318,21.0944 83.6652,19.9277 85.5,19C 82.0569,18.7787 81.7236,17.7787 84.5,16C 80.885,15.6442 78.2184,17.1442 76.5,20.5C 77.376,21.2508 78.376,21.7508 79.5,22C 78.2888,22.8928 78.2888,23.7261 79.5,24.5C 80.086,24.2907 80.586,23.9574 81,23.5C 81.6667,24.8333 81.6667,26.1667 81,27.5C 78.5615,29.0268 76.5615,31.0268 75,33.5C 73.229,37.7983 71.5624,42.1317 70,46.5C 68.1981,39.9638 67.1981,40.2972 67,47.5C 65.7485,45.9991 64.7485,44.3325 64,42.5C 64.8156,47.2554 65.6489,52.0887 66.5,57C 66.1297,58.8958 65.963,60.7292 66,62.5C 67.9078,59.7846 69.2411,56.7846 70,53.5C 70.3333,54.5 70.6667,55.5 71,56.5C 71.8624,54.913 72.5291,53.2464 73,51.5C 74.6768,54.8534 76.8434,57.8534 79.5,60.5C 75.8822,67.1182 70.8822,72.4515 64.5,76.5C 63.347,80.2082 64.847,82.2082 69,82.5C 77.1039,80.4438 83.7706,76.1104 89,69.5C 88,72.8333 87,76.1667 86,79.5C 89.2116,74.9132 92.045,70.0799 94.5,65C 99.9016,64.0482 104.735,61.8815 109,58.5C 110.289,61.3508 110.789,64.3508 110.5,67.5C 107.049,66.7307 103.716,65.8973 100.5,65C 102.695,75.9647 101.195,86.4647 96,96.5C 95.1965,93.7558 94.1965,91.0891 93,88.5C 87.3595,99.3072 79.1928,107.641 68.5,113.5C 67.6725,109.204 67.1725,104.871 67,100.5C 61.7986,104.684 55.9653,107.684 49.5,109.5C 44.9253,104.265 45.9253,101.432 52.5,101C 48.5,100 44.5,99 40.5,98C 46.6645,93.75 52.9979,89.75 59.5,86C 52.1501,87.5551 44.8168,89.5551 37.5,92C 30.1108,92.8006 22.7775,92.4672 15.5,91C 13.0807,89.4912 12.0807,87.3245 12.5,84.5C 19.8991,86.6227 26.8991,85.7894 33.5,82C 37.0599,77.437 40.2266,72.6037 43,67.5C 44.6833,45.2171 34.5166,36.8838 12.5,42.5C 9.86236,41.3044 9.02903,39.3044 10,36.5C 11.3848,37.5505 12.3848,38.8839 13,40.5C 13.4828,39.552 13.6495,38.552 13.5,37.5C 19.8333,37.1667 23.1667,33.8333 23.5,27.5C 30.0195,28.2132 36.3528,29.7132 42.5,32C 44.6667,34.8333 46.8333,37.6667 49,40.5C 49.1405,38.7445 48.6405,37.0778 47.5,35.5C 47.8333,35.1667 48.1667,34.8333 48.5,34.5C 49.6199,35.8334 50.9532,36.3334 52.5,36C 48.382,30.1073 42.7154,27.1073 35.5,27C 34.9973,22.7936 36.9973,20.127 41.5,19C 42.8333,18.3333 44.1667,18.3333 45.5,19C 44.2888,19.8928 44.2888,20.7261 45.5,21.5C 52.6015,16.223 60.2681,15.223 68.5,18.5C 71.2117,16.1152 73.8784,13.7819 76.5,11.5 Z"/></g>
<g><path style="opacity:1" fill="#3f96a3" d="M 42.5,12.5 C 44.924,12.1924 47.2573,12.5258 49.5,13.5C 47.9292,16.0934 45.5959,17.0934 42.5,16.5C 42.5,15.1667 42.5,13.8333 42.5,12.5 Z"/></g>
<g><path style="opacity:0.517" fill="#e37d00" d="M -0.5,34.5 C -0.5,31.5 -0.5,28.5 -0.5,25.5C 2.60153,21.8955 5.93487,18.3955 9.5,15C 10.1667,14.3333 10.8333,14.3333 11.5,15C 6.33296,20.8444 2.33296,27.3444 -0.5,34.5 Z"/></g>
<g><path style="opacity:0.947" fill="#dd7900" d="M 107.5,20.5 C 112.002,22.0079 116.002,24.3412 119.5,27.5C 119.5,46.8333 119.5,66.1667 119.5,85.5C 109.577,98.1319 96.91,106.799 81.5,111.5C 84.9709,108.86 87.9709,105.694 90.5,102C 91.3317,101.312 91.9984,101.479 92.5,102.5C 93.5371,106.087 95.0371,106.087 97,102.5C 102.89,93.6679 106.723,84.0012 108.5,73.5C 110.001,74.7515 111.668,75.7515 113.5,76.5C 114.909,69.0571 114.576,61.7238 112.5,54.5C 116.262,45.1624 114.762,36.8291 108,29.5C 107.502,26.5184 107.335,23.5184 107.5,20.5 Z"/></g>
<g><path style="opacity:0.668" fill="#d17200" d="M 33.5,21.5 C 32.7629,23.3046 31.7629,24.9713 30.5,26.5C 29.2613,26.0576 28.2613,25.3909 27.5,24.5C 29.2163,22.9752 31.2163,21.9752 33.5,21.5 Z"/></g>
<g><path style="opacity:1" fill="#101819" d="M 61.5,23.5 C 63.7349,24.2481 63.4016,25.0814 60.5,26C 65.7912,26.5837 67.7912,29.2504 66.5,34C 63.634,35.4568 60.634,35.7901 57.5,35C 54.9861,33.2427 52.3194,31.7427 49.5,30.5C 54.0353,28.939 58.0353,26.6057 61.5,23.5 Z"/></g>
<g><path style="opacity:1" fill="#737373" d="M 7.5,26.5 C 11.8461,26.3343 16.1794,26.501 20.5,27C 19.3545,28.8594 17.6878,29.6927 15.5,29.5C 13.1678,28.8275 10.8344,28.6608 8.5,29C 7.80945,30.0674 7.30945,31.2341 7,32.5C 6.32239,30.4024 6.48905,28.4024 7.5,26.5 Z"/></g>
<g><path style="opacity:1" fill="#eeeeee" d="M 88.5,26.5 C 96.4786,25.6557 103.145,28.1557 108.5,34C 95.3478,30.4725 89.5144,35.6391 91,49.5C 92.4166,55.5826 96.2499,58.7493 102.5,59C 100.731,60.3139 98.7315,61.1472 96.5,61.5C 92.819,58.6581 88.819,56.3248 84.5,54.5C 79.7949,44.7674 81.7949,36.6008 90.5,30C 85.4215,32.0903 81.9215,35.9236 80,41.5C 78.9791,46.8136 79.8124,51.8136 82.5,56.5C 81.9984,57.521 81.3317,57.6877 80.5,57C 71.712,43.7566 74.3786,33.59 88.5,26.5 Z"/></g>
<g><path style="opacity:1" fill="#e3e3e3" d="M 58.5,28.5 C 63.8607,28.042 65.1941,29.8754 62.5,34C 57.7282,34.8104 56.3948,32.9771 58.5,28.5 Z"/></g>
<g><path style="opacity:1" fill="#f5f5f5" d="M 98.5,35.5 C 102.683,34.8456 105.516,36.5123 107,40.5C 108.472,46.0755 107.305,50.9089 103.5,55C 97.2448,55.2525 93.9115,52.0859 93.5,45.5C 94.1152,41.6028 95.7819,38.2695 98.5,35.5 Z"/></g>
<g><path style="opacity:0.935" fill="#de7a00" d="M 7.5,41.5 C 8.9722,44.2695 10.1389,47.2695 11,50.5C 13.8806,54.5635 15.214,53.8969 15,48.5C 16.0736,49.6184 17.2402,50.6184 18.5,51.5C 20.3958,56.3124 21.3958,61.3124 21.5,66.5C 21.8804,71.527 20.3804,75.8603 17,79.5C 15.9562,77.2852 15.2895,74.9519 15,72.5C 13.4744,76.0028 11.9744,79.3361 10.5,82.5C 4.99442,71.4777 2.49442,59.811 3,47.5C 4.27747,45.2528 5.77747,43.2528 7.5,41.5 Z"/></g>
<g><path style="opacity:1" fill="#999999" d="M 15.5,44.5 C 17.4646,44.9483 17.7979,45.9483 16.5,47.5C 15.6143,46.675 15.281,45.675 15.5,44.5 Z"/></g>
<g><path style="opacity:1" fill="#c6c6c6" d="M 25.5,43.5 C 26.675,43.281 27.675,43.6143 28.5,44.5C 27.1062,50.8542 26.1062,50.5209 25.5,43.5 Z"/></g>
<g><path style="opacity:1" fill="#8c8c8c" d="M 10.5,44.5 C 11.5,44.5 12.5,44.5 13.5,44.5C 12.948,50.969 11.948,50.969 10.5,44.5 Z"/></g>
<g><path style="opacity:1" fill="#802e18" d="M 30.5,46.5 C 32.377,45.3754 34.2103,45.7088 36,47.5C 38.2447,50.8903 39.2447,54.557 39,58.5C 37.8035,55.9109 36.8035,53.2442 36,50.5C 34.549,48.5359 32.7157,47.2026 30.5,46.5 Z"/></g>
<g><path style="opacity:1" fill="#efefef" d="M 84.5,58.5 C 86.7567,58.9617 88.7567,59.9617 90.5,61.5C 86.2482,69.5848 79.9149,75.4181 71.5,79C 70.0563,79.7805 68.723,79.6139 67.5,78.5C 74.5777,72.997 80.2444,66.3303 84.5,58.5 Z"/></g>
<g><path style="opacity:1" fill="#e6421e" d="M 29.5,76.5 C 29.6621,74.4727 29.4955,72.4727 29,70.5C 27.5485,73.0138 26.3818,75.6805 25.5,78.5C 24.2798,79.7111 23.1131,79.7111 22,78.5C 21.6667,79.1667 21.3333,79.8333 21,80.5C 20.3333,79.1667 20.3333,77.8333 21,76.5C 24.7552,69.3949 30.2552,64.5615 37.5,62C 33.4772,65.6526 33.8106,66.1526 38.5,63.5C 39.7243,65.8978 39.5576,68.2311 38,70.5C 36.0227,73.3116 33.856,75.9783 31.5,78.5C 30.8182,77.7573 30.1515,77.0906 29.5,76.5 Z"/></g>
<g><path style="opacity:0.651" fill="#e37c00" d="M -0.5,71.5 C 1.68106,78.1965 4.68106,84.5299 8.5,90.5C 8.5,91.1667 8.83333,91.5 9.5,91.5C 9.64945,92.552 9.48278,93.552 9,94.5C 5.60135,91.2711 2.43468,87.9378 -0.5,84.5C -0.5,80.1667 -0.5,75.8333 -0.5,71.5 Z"/></g>
<g><path style="opacity:1" fill="#dcdcdc" d="M 29.5,76.5 C 30.0522,78.3307 30.0522,79.9974 29.5,81.5C 27.5539,79.9563 27.0539,77.9563 28,75.5C 28.3826,76.056 28.8826,76.3893 29.5,76.5 Z"/></g>
<g><path style="opacity:1" fill="#b7b7b7" d="M 13.5,76.5 C 14.7709,78.1086 15.7709,79.9419 16.5,82C 15.552,82.4828 14.552,82.6495 13.5,82.5C 13.5,80.5 13.5,78.5 13.5,76.5 Z"/></g>
<g><path style="opacity:1" fill="#070f10" d="M 85.5,86.5 C 86.0431,86.56 86.3764,86.8933 86.5,87.5C 81.8504,94.1451 76.8504,100.478 71.5,106.5C 70.3414,102.878 70.1747,99.2113 71,95.5C 72.8684,96.6719 74.7017,96.5053 76.5,95C 79.3957,91.9343 82.3957,89.1009 85.5,86.5 Z"/></g>
<g><path style="opacity:0.891" fill="#d57400" d="M 19.5,96.5 C 21.0174,96.5106 22.1841,97.1772 23,98.5C 23.3076,97.6919 23.8076,97.0253 24.5,96.5C 25.8139,97.3128 26.9805,98.3128 28,99.5C 28.3076,98.6919 28.8076,98.0253 29.5,97.5C 30.8924,98.6053 32.059,99.9386 33,101.5C 33.414,101.043 33.914,100.709 34.5,100.5C 36.8537,101.06 39.187,101.727 41.5,102.5C 42.2725,105.465 42.9392,108.465 43.5,111.5C 43.4573,112.416 43.1239,113.083 42.5,113.5C 34.5267,111.431 27.6934,107.431 22,101.5C 21.1534,99.8068 20.3201,98.1401 19.5,96.5 Z"/></g>
<g><path style="opacity:0.77" fill="#e37d00" d="M 119.5,97.5 C 119.5,99.1667 119.5,100.833 119.5,102.5C 114.139,108.193 108.805,113.86 103.5,119.5C 97.5,119.5 91.5,119.5 85.5,119.5C 98.115,114.232 109.448,106.898 119.5,97.5 Z"/></g>
<g><path style="opacity:0.774" fill="#e37d00" d="M -0.5,102.5 C 7.84385,109.854 17.1772,115.52 27.5,119.5C 21.8333,119.5 16.1667,119.5 10.5,119.5C 7.16667,115.5 3.5,111.833 -0.5,108.5C -0.5,106.5 -0.5,104.5 -0.5,102.5 Z"/></g>
<g><path style="opacity:0.853" fill="#d97700" d="M 63.5,116.5 C 59.1311,116.533 54.7978,116.2 50.5,115.5C 54.4532,113.107 58.6199,110.774 63,108.5C 63.4974,111.146 63.6641,113.813 63.5,116.5 Z"/></g>
</svg>
